<?xml version="1.0" standalone="no"?>
<!DOCTYPE svg PUBLIC "-//W3C//DTD SVG 20010904//EN"
 "http://www.w3.org/TR/2001/REC-SVG-20010904/DTD/svg10.dtd">
<svg version="1.0" xmlns="http://www.w3.org/2000/svg"
 width="200.000000pt" height="200.000000pt" viewBox="0 0 200.000000 200.000000"
 preserveAspectRatio="xMidYMid meet">
<metadata>
Created by potrace 1.11, written by Peter Selinger 2001-2013
</metadata>
<g transform="translate(0.000000,200.000000) scale(0.100000,-0.100000)"
fill="#000000" stroke="none">
<path d="M870 1811 c-203 -37 -374 -136 -505 -292 -84 -100 -153 -252 -173
-379 -9 -58 -9 -222 0 -280 17 -112 77 -252 148 -346 38 -51 139 -154 150
-154 3 0 21 37 39 82 19 46 39 97 47 113 21 48 210 504 260 627 42 106 44 113
27 125 -40 27 -62 59 -73 105 -7 26 -9 55 -6 63 13 35 129 -4 167 -56 25 -36
35 -36 65 -3 17 17 24 37 24 65 0 30 6 46 26 64 36 33 41 32 38 -12 -2 -52 11
-83 36 -83 17 0 20 6 20 44 0 29 7 52 20 67 10 13 20 22 20 19 1 -3 4 -16 6
-30 10 -55 58 -138 114 -196 33 -34 60 -68 60 -74 0 -7 32 -45 71 -85 76 -79
80 -92 36 -133 -27 -25 -45 -27 -127 -17 -62 9 -85 9 -158 6 -43 -1 -78 -39
-97 -105 -20 -67 -63 -276 -70 -346 -14 -133 -18 -154 -41 -222 -15 -47 -66
-151 -86 -175 -17 -21 16 -26 125 -20 258 13 477 129 627 332 180 243 209 578
74 849 -105 209 -289 362 -515 426 -82 23 -271 34 -349 21z"/>
</g>
</svg>
